:SAMPLES-PER-SECOND 30
:FULLY-SPECIFIED
:DEGREES
352
root  20.95 29.2792 48.2408 -155.851 21.1445 -173.413
RightUpLeg  -63.5821 -15.0995 10.6995
RightLeg  57.1087 -0.0882388 -0.192142
RightFoot  -3.86525 -0.03654 -0.705422
RightToes  -29.1651 -0.138214 -0.246121
Spine  18.0652 -2.96181 -1.7916
Spine1  31.517 -7.52979 -1.65176
HEad  14.3066 9.8576 5.15291
LeftShoulder1  0 -2.42657e-020 -4.95415e-022
LeftArm  -26.4582 -29.9464 -69.2361
LeftForeArm  63.5051 -45.5033 -10.2881
LeftHand  -1.3206 -9.53031 15.3841
RightShoulder  0 2.42657e-020 1.07489e-018
RightArm  -37.8484 24.9833 84.2908
RightForeArm  46.6323 23.3237 4.33508
RightHand  -1.76993 27.156 -6.9505
LeftUpLeg  -33.6538 1.19067 29.6748
LeftLeg  53.8323 4.44636 5.29835
LeftFoot  -8.78288 -0.226678 -2.95107
LeftToes  -20.3916 1.28829e-006 1.15665e-007
353
root  21.8224 28.9162 47.9769 -155.131 23.2537 -172.571
RightUpLeg  -64.4709 -13.9206 12.4677
RightLeg  59.9928 0.666258 0.911357
RightFoot  -6.37294 -0.0806855 -1.0718
RightToes  -29.6635 -0.14161 -0.24962
Spine  19.7974 -3.74799 -0.973937
Spine1  33.4026 -9.95294 0.166926
HEad  14.8085 12.7507 2.43926
LeftShoulder1  0 -2.42657e-020 -4.95415e-022
LeftArm  -27.6925 -37.3154 -68.2892
LeftForeArm  63.6857 -34.5762 -6.91896
LeftHand  -0.871099 -10.3269 9.25365
RightShoulder  0 2.42657e-020 1.07489e-018
RightArm  -35.1248 31.5275 84.448
RightForeArm  45.255 22.6469 4.19604
RightHand  -1.3254 24.9605 -5.61447
LeftUpLeg  -36.0669 0.214328 28.7452
LeftLeg  62.6908 6.07815 9.98626
LeftFoot  -8.87125 -0.330816 -4.26272
LeftToes  -6.8165 1.28829e-006 1.15665e-007
354
root  22.6196 28.509 47.6097 -154.072 26.2334 -171.67
RightUpLeg  -65.2363 -11.8584 13.641
RightLeg  62.8371 1.24097 1.97173
RightFoot  -8.8893 -0.145126 -1.48947
RightToes  -30.6747 -0.148595 -0.256628
Spine  21.1646 -3.95731 -0.314599
Spine1  34.6204 -11.0545 1.33464
HEad  16.3452 15.0627 -0.36984
LeftShoulder1  0 -2.42657e-020 -4.95415e-022
LeftArm  -29.637 -45.9721 -66.3286
LeftForeArm  67.2206 -20.8869 -3.78839
LeftHand  0.114737 -9.31678 -1.77929
RightShoulder  0 2.42657e-020 1.07489e-018
RightArm  -32.2206 38.0074 84.9376
RightForeArm  42.8179 20.8387 3.82921
RightHand  -0.7829 23.8199 -3.34155
LeftUpLeg  -37.9821 -0.19698 26.7116
LeftLeg  70.4646 3.9818 9.17934
LeftFoot  -11.7098 -0.487347 -4.74985
LeftToes  -10.1881 1.28829e-006 1.15665e-007
355
root  23.3149 28.1828 47.2037 -153.398 29.9709 -170.825
RightUpLeg  -65.2336 -9.37264 14.1374
RightLeg  65.1054 1.70893 3.01235
RightFoot  -10.5868 -0.205476 -1.84004
RightToes  -31.0347 -0.151111 -0.259093
Spine  22.1806 -3.23868 0.0337794
Spine1  35.6921 -9.28693 0.7743
HEad  16.5368 16.842 -3.35304
LeftShoulder1  0 -2.42657e-020 -4.95415e-022
LeftArm  -31.6936 -51.4788 -64.892
LeftForeArm  68.1204 -9.31696 -1.59466
LeftHand  0.62404 -6.8822 -10.7306
RightShoulder  0 2.42657e-020 1.07489e-018
RightArm  -31.3172 43.7439 85.5596
RightForeArm  39.9302 18.3104 3.33016
RightHand  -0.41037 24.6547 -1.50803
LeftUpLeg  -39.4951 0.686126 23.1148
LeftLeg  77.5119 3.55493 12.0472
LeftFoot  -15.0696 -0.783905 -5.92135
LeftToes  -6.68057 1.28829e-006 1.15665e-007
356
root  23.8465 28.0999 46.6591 -153.212 33.6116 -170.947
RightUpLeg  -64.5195 -7.67592 13.5022
RightLeg  66.2368 2.35421 4.39219
RightFoot  -12.088 -0.268182 -2.15505
RightToes  -30.9466 -0.150493 -0.258491
Spine  22.5943 -2.16592 0.164135
Spine1  36.3368 -6.06974 -0.663333
HEad  15.4467 17.3407 -6.37063
LeftShoulder1  0 -2.42657e-020 -4.95415e-022
LeftArm  -33.5027 -51.3603 -66.3594
LeftForeArm  68.0423 -6.86331 -1.15594
LeftHand  0.377401 -3.31895 -13.3688
RightShoulder  0 2.42657e-020 1.07489e-018
RightArm  -34.0205 47.6824 85.6061
RightForeArm  39.676 16.5434 2.98825
RightHand  0.559646 24.3628 2.96288
LeftUpLeg  -41.4222 1.57166 17.6673
LeftLeg  82.1985 3.53779 16.8639
LeftFoot  -18.7636 -1.2896 -7.79356
LeftToes  0.141798 1.28829e-006 1.15665e-007
357
root  24.3341 28.2615 46.0876 -152.353 37.2397 -170.726
RightUpLeg  -63.3003 -5.64564 12.8533
RightLeg  65.8234 3.15991 5.8285
RightFoot  -13.0615 -0.327258 -2.48066
RightToes  -29.7173 -0.141979 -0.249996
Spine  22.4454 -0.587409 0.194102
Spine1  36.1946 -1.99683 -1.38697
HEad  14.3521 16.2118 -8.07037
LeftShoulder1  0 -2.42657e-020 -4.95415e-022
LeftArm  -34.6589 -48.1761 -71.1254
LeftForeArm  66.9662 -9.88492 -1.70003
LeftHand  0.361321 -3.72999 -11.4532
RightShoulder  0 2.42657e-020 1.07489e-018
RightArm  -38.69 49.2119 83.615
RightForeArm  36.5346 16.3426 2.95313
RightHand  1.1605 24.2435 5.7709
LeftUpLeg  -44.3763 2.12666 12.5316
LeftLeg  84.11 3.10372 17.762
LeftFoot  -20.7599 -1.47851 -8.05884
LeftToes  1.98721 1.28829e-006 1.15665e-007
358
root  24.8358 28.5828 45.4679 -152.149 39.9648 -171.156
RightUpLeg  -61.4341 -4.11836 11.61
RightLeg  64.522 3.55948 6.23447
RightFoot  -13.1827 -0.32713 -2.45305
RightToes  -32.562 -0.161955 -0.269372
Spine  22.1556 0.874003 0.376365
Spine1  36.0226 1.89667 -1.68902
HEad  13.8405 14.5865 -8.67236
LeftShoulder1  0 -2.42657e-020 -4.95415e-022
LeftArm  -28.3782 -43.8278 -76.0734
LeftForeArm  60.2567 -13.7288 -2.42051
LeftHand  0.339703 -5.89691 -6.96633
RightShoulder  0 2.42657e-020 1.07489e-018
RightArm  -43.171 49.4165 79.7901
RightForeArm  30.0387 16.9147 3.06793
RightHand  1.68943 23.8483 8.35998
LeftUpLeg  -48.0652 0.706189 8.18864
LeftLeg  83.7014 2.67183 14.7991
LeftFoot  -21.3633 -1.21176 -6.41789
LeftToes  -0.7583 1.28829e-006 1.15665e-007
359
root  25.388 29.0204 44.8294 -152.221 41.5999 -171.859
RightUpLeg  -59.022 -2.94603 10.3335
RightLeg  62.4984 3.76779 6.09604
RightFoot  -13.7015 -0.322745 -2.30846
RightToes  -33.0091 -0.165182 -0.272327
Spine  21.7015 2.06231 0.728662
Spine1  35.7294 5.43427 -1.96394
HEad  13.5563 13.0843 -8.23711
LeftShoulder1  0 -2.42657e-020 -4.95415e-022
LeftArm  -22.2732 -39.7167 -79.6637
LeftForeArm  55.1922 -15.9258 -2.84464
LeftHand  0.189955 -5.64859 -4.22414
RightShoulder  0 2.42657e-020 1.07489e-018
RightArm  -46.8859 48.3237 75.5887
RightForeArm  23.5062 17.8789 3.25705
RightHand  2.26 23.2907 11.3069
LeftUpLeg  -52.4196 -1.81996 5.4755
LeftLeg  81.5844 2.70771 12.3984
LeftFoot  -20.9434 -0.911004 -4.926
LeftToes  -2.07893 1.28829e-006 1.15665e-007
360
root  25.9975 29.5142 44.1551 -152.472 42.4223 -172.708
RightUpLeg  -56.2081 -1.69367 8.94881
RightLeg  59.9675 3.58548 5.26804
RightFoot  -14.2165 -0.294493 -1.98379
RightToes  -32.8463 -0.167506 -0.274465
Spine  21.0535 2.9504 1.06892
Spine1  35.1579 8.2811 -2.14351
HEad  13.2816 11.9208 -7.74306
LeftShoulder1  0 -2.42657e-020 -4.95415e-022
LeftArm  -20.127 -36.4699 -82.3558
LeftForeArm  55.7954 -15.9855 -2.8548
LeftHand  0.201307 -5.78295 -4.35918
RightShoulder  0 2.42657e-020 1.07489e-018
RightArm  -50.2447 46.008 72.3186
RightForeArm  19.2415 19.3203 3.54024
RightHand  2.76005 23.4392 13.6217
LeftUpLeg  -56.7321 -4.20997 4.16463
LeftLeg  77.7285 3.25805 11.2208
LeftFoot  -20.273 -0.735813 -4.11394
LeftToes  -0.502093 1.28829e-006 1.15665e-007
361
root  26.6831 30.0127 43.4163 -153.121 42.5809 -173.799
RightUpLeg  -52.8302 -0.640221 7.58244
RightLeg  57.067 2.97851 3.92781
RightFoot  -14.8916 -0.249274 -1.52971
RightToes  -33.1678 -0.166332 -0.273369
Spine  20.1799 3.52095 1.33732
Spine1  34.1833 10.3282 -2.32447
HEad  13.234 11.3402 -7.77808
LeftShoulder1  0 -2.42657e-020 -4.95415e-022
LeftArm  -20.9522 -33.1495 -83.9191
LeftForeArm  57.8718 -14.9417 -2.65285
LeftHand  0.342642 -7.05538 -5.92948
RightShoulder  0 2.42657e-020 1.07489e-018
RightArm  -52.1273 42.5212 70.3107
RightForeArm  12.9399 21.4691 3.97013
RightHand  3.18001 22.5805 16.2056
LeftUpLeg  -60.0882 -5.46283 3.17093
LeftLeg  71.5727 3.82083 9.29856
LeftFoot  -19.1702 -0.537365 -3.18134
LeftToes  -1.13256 1.28829e-006 1.15665e-007
362
root  27.5325 30.5372 42.5897 -154.051 42.6397 -174.342
RightUpLeg  -48.1074 -0.249566 7.04289
RightLeg  53.2858 2.79755 3.22573
RightFoot  -15.4043 -0.227727 -1.30623
RightToes  -31.6672 -0.155569 -0.263385
Spine  19.2349 3.95836 1.52382
Spine1  33.1703 11.849 -2.49339
HEad  13.3041 11.8916 -8.51738
LeftShoulder1  0 -2.42657e-020 -4.95415e-022
LeftArm  -23.3909 -29.49 -84.4427
LeftForeArm  59.2486 -13.8863 -2.45208
LeftHand  0.430117 -7.57863 -6.86333
RightShoulder  0 2.42657e-020 1.07489e-018
RightArm  -51.8118 38.2999 69.5096
RightForeArm  4.4355 23.812 4.44948
RightHand  4.0332 21.8389 21.0627
LeftUpLeg  -61.21 -4.40465 1.64905
LeftLeg  63.096 3.81039 6.40324
LeftFoot  -16.5982 -0.277299 -1.90087
LeftToes  -2.87462 1.28829e-006 1.15665e-007
363
root  28.5637 31.0734 41.5931 -155.864 42.0383 -174.987
RightUpLeg  -41.7792 0.0863975 6.54392
RightLeg  48.8181 1.99184 1.95738
RightFoot  -15.6822 -0.174154 -0.887048
RightToes  -32.534 -0.161754 -0.269186
Spine  18.1108 4.01786 1.50652
Spine1  31.8924 12.3651 -2.98584
HEad  13.6589 13.2381 -9.10907
LeftShoulder1  0 -2.42657e-020 -4.95415e-022
LeftArm  -27.3144 -25.1353 -83.8885
LeftForeArm  61.0923 -13.2741 -2.33413
LeftHand  0.419917 -7.32154 -6.93266
RightShoulder  0 2.42657e-020 1.07489e-018
RightArm  -47.7382 32.404 70.2563
RightForeArm  -3.9957 27.4844 5.23786
RightHand  4.77121 21.2398 25.4308
LeftUpLeg  -59.885 -2.00178 -1.17866
LeftLeg  52.9116 3.28833 3.7977
LeftFoot  -12.137 -0.077745 -0.731285
LeftToes  -6.28462 1.28829e-006 1.15665e-007
364
root  29.6518 31.6069 40.5408 -157.104 41.5783 -175.361
RightUpLeg  -35.3554 0.487587 6.37289
RightLeg  43.4397 1.28343 1.03807
RightFoot  -15.5289 -0.129858 -0.574838
RightToes  -29.5434 -0.140789 -0.24878
Spine  16.3452 3.96577 1.10743
Spine1  29.3659 12.12 -3.47866
HEad  14.3794 14.6833 -9.39038
LeftShoulder1  0 -2.42657e-020 -4.95415e-022
LeftArm  -31.3146 -19.4994 -82.6917
LeftForeArm  62.29 -13.1927 -2.31632
LeftHand  0.393867 -7.20466 -6.62641
RightShoulder  0 2.42657e-020 1.07489e-018
RightArm  -42.8853 25.1519 72.2006
RightForeArm  -13.3641 31.782 6.22794
RightHand  5.38212 20.0572 30.1479
LeftUpLeg  -57.9295 2.63127 -5.62481
LeftLeg  42.4729 4.32139 3.46009
LeftFoot  -7.39197 -0.019538 -0.30247
LeftToes  -8.78333 1.28829e-006 1.15665e-007
365
root  30.8318 32.0211 39.3374 -159.02 41.144 -175.925
RightUpLeg  -28.3997 1.11447 6.19149
RightLeg  38.6333 0.0994622 0.0492526
RightFoot  -15.3919 -0.075112 -0.178291
RightToes  -26.9526 -0.123509 -0.230238
Spine  14.6156 3.66975 0.495243
Spine1  26.7938 10.9596 -3.76566
HEad  15.6229 15.9964 -9.56682
LeftShoulder1  0 -2.42657e-020 -4.95415e-022
LeftArm  -34.0227 -13.237 -81.2013
LeftForeArm  61.5747 -13.5737 -2.38869
LeftHand  0.40239 -7.2774 -6.69753
RightShoulder  0 2.42657e-020 1.07489e-018
RightArm  -40.1448 17.3928 74.9626
RightForeArm  -20.7356 35.7002 7.2151
RightHand  4.53942 18.0422 28.4141
LeftUpLeg  -54.7933 8.57998 -11.3175
LeftLeg  33.3003 6.52469 3.69201
LeftFoot  -6.37521 -0.0239466 -0.429991
LeftToes  -10.1538 1.28829e-006 1.15665e-007
